<svg width="195" height="38" viewBox="0 0 195 38" fill="none" xmlns="http://www.w3.org/2000/svg">
<path d="M26.05 4.7V10.85C23.5167 9.38333 20.7167 8.65 17.65 8.65C14.5833 8.65 12.0167 9.7 9.95 11.8C7.91667 13.8667 6.9 16.65 6.9 20.15C6.9 23.65 7.91667 26.4333 9.95 28.5C12.0167 30.5667 14.7 31.6 18 31.6C21.1667 31.6 23.8667 30.7667 26.1 29.1V35.4C24.0333 36.7333 21.1333 37.4 17.4 37.4C12.4 37.4 8.26667 35.8333 5 32.7C1.76667 29.5333 0.15 25.35 0.15 20.15C0.15 15.05 1.75 10.9 4.95 7.7C8.18333 4.46667 12.3333 2.85 17.4 2.85C21.1 2.85 23.9833 3.46667 26.05 4.7ZM37.7188 1.65V15.95C39.0854 12.8833 41.6688 11.35 45.4688 11.35C47.9354 11.35 49.9188 12.1333 51.4188 13.7C52.9521 15.2333 53.7187 17.4667 53.7187 20.4V37H47.7188V21.45C47.7188 19.85 47.3021 18.6 46.4688 17.7C45.6688 16.8 44.6188 16.35 43.3188 16.35C41.8854 16.35 40.5854 16.9 39.4188 18C38.2854 19.1 37.7188 20.9 37.7188 23.4V37H31.7188V1.65H37.7188ZM60.2402 37V11.65H66.2402V37H60.2402ZM59.6402 4.05C59.6402 3.05 59.9902 2.2 60.6902 1.5C61.3902 0.799999 62.2402 0.45 63.2402 0.45C64.2402 0.45 65.0902 0.799999 65.7902 1.5C66.4902 2.2 66.8402 3.05 66.8402 4.05C66.8402 5.08333 66.4902 5.95 65.7902 6.65C65.0902 7.35 64.2402 7.7 63.2402 7.7C62.2402 7.7 61.3902 7.35 60.6902 6.65C59.9902 5.95 59.6402 5.08333 59.6402 4.05ZM77.7785 24.4C77.8452 26.8 78.5618 28.7333 79.9285 30.2C81.3285 31.6667 83.2118 32.4 85.5785 32.4C87.6452 32.4 89.5618 31.8333 91.3285 30.7V35.9C89.5618 36.9333 87.3618 37.45 84.7285 37.45C80.8285 37.45 77.6618 36.2167 75.2285 33.75C72.8285 31.2833 71.6285 28.1667 71.6285 24.4C71.6618 20.7 72.8618 17.5833 75.2285 15.05C77.6285 12.5167 80.8952 11.25 85.0285 11.25C87.4952 11.25 89.5952 11.7167 91.3285 12.65V17.95C89.6619 16.8833 87.7619 16.35 85.6285 16.35C83.2952 16.35 81.4118 17.0833 79.9785 18.55C78.5452 20.0167 77.8118 21.9667 77.7785 24.4Z" fill="white"/>
<path d="M121.265 4.7V10.85C118.732 9.38333 115.932 8.65 112.865 8.65C109.798 8.65 107.232 9.7 105.165 11.8C103.132 13.8667 102.115 16.65 102.115 20.15C102.115 23.65 103.132 26.4333 105.165 28.5C107.232 30.5667 109.915 31.6 113.215 31.6C116.382 31.6 119.082 30.7667 121.315 29.1V35.4C119.248 36.7333 116.348 37.4 112.615 37.4C107.615 37.4 103.482 35.8333 100.215 32.7C96.9815 29.5333 95.3648 25.35 95.3648 20.15C95.3648 15.05 96.9648 10.9 100.165 7.7C103.398 4.46667 107.548 2.85 112.615 2.85C116.315 2.85 119.198 3.46667 121.265 4.7ZM132.934 1.65V15.95C134.3 12.8833 136.884 11.35 140.684 11.35C143.15 11.35 145.134 12.1333 146.634 13.7C148.167 15.2333 148.934 17.4667 148.934 20.4V37H142.934V21.45C142.934 19.85 142.517 18.6 141.684 17.7C140.884 16.8 139.834 16.35 138.534 16.35C137.1 16.35 135.8 16.9 134.634 18C133.5 19.1 132.934 20.9 132.934 23.4V37H126.934V1.65H132.934ZM168.155 26.1H165.055C163.488 26.1 162.288 26.4333 161.455 27.1C160.622 27.7333 160.205 28.55 160.205 29.55C160.205 31.6833 161.438 32.75 163.905 32.75C165.238 32.75 166.272 32.3667 167.005 31.6C167.772 30.8 168.155 29.7667 168.155 28.5V26.1ZM155.855 18.5V12.95C157.755 11.7833 160.488 11.2 164.055 11.2C170.922 11.2 174.355 14.4 174.355 20.8V37H168.405V33.95C167.238 36.1167 165.038 37.2 161.805 37.2C159.405 37.2 157.488 36.5 156.055 35.1C154.655 33.7 153.955 31.9333 153.955 29.8C153.955 27.4 154.855 25.5167 156.655 24.15C158.455 22.7833 161.055 22.1 164.455 22.1H168.155V20.55C168.155 19.15 167.788 18.0833 167.055 17.35C166.322 16.6167 165.072 16.25 163.305 16.25C160.605 16.25 158.122 17 155.855 18.5ZM187.847 16.15V29.05C187.847 30.1167 188.13 30.9333 188.697 31.5C189.264 32.0333 190.047 32.3 191.047 32.3C192.314 32.3 193.48 31.95 194.547 31.25V36.4C193.38 36.9667 191.88 37.25 190.047 37.25C184.58 37.25 181.847 34.4833 181.847 28.95V16.15H178.047V11.65H181.847V5.55H187.847V11.65H194.147V16.15H187.847Z" fill="#FFD101"/>
</svg>
